<mxfile host="app.diagrams.net" modified="2023-09-08T11:48:23.398Z" agent="Mozilla/5.0 (Windows NT 10.0; Win64; x64) AppleWebKit/537.36 (KHTML, like Gecko) Chrome/116.0.0.0 Safari/537.36" etag="a5J_xvtPRM7fgqDVh4pR" version="21.7.2" type="github">
  <diagram name="第 1 页" id="dO_t43Dvr9O0fP0Ihukn">
    <mxGraphModel dx="509" dy="307" grid="1" gridSize="10" guides="1" tooltips="1" connect="1" arrows="1" fold="1" page="1" pageScale="1" pageWidth="340" pageHeight="170" math="1" shadow="0">
      <root>
        <mxCell id="0" />
        <mxCell id="1" parent="0" />
        <mxCell id="6rP7G1vMZs56Qu1uSz9i-1" value="" style="endArrow=none;html=1;rounded=0;startArrow=oval;startFill=1;endFill=0;" edge="1" parent="1">
          <mxGeometry width="50" height="50" relative="1" as="geometry">
            <mxPoint x="20" y="157" as="sourcePoint" />
            <mxPoint x="140" y="7" as="targetPoint" />
          </mxGeometry>
        </mxCell>
        <mxCell id="6rP7G1vMZs56Qu1uSz9i-2" value="$$E$$" style="text;html=1;strokeColor=none;fillColor=none;align=center;verticalAlign=middle;whiteSpace=wrap;rounded=0;" vertex="1" parent="1">
          <mxGeometry x="30" y="53" width="60" height="30" as="geometry" />
        </mxCell>
        <mxCell id="6rP7G1vMZs56Qu1uSz9i-3" value="$$P$$" style="text;html=1;strokeColor=none;fillColor=none;align=center;verticalAlign=middle;whiteSpace=wrap;rounded=0;" vertex="1" parent="1">
          <mxGeometry y="143" width="19" height="14" as="geometry" />
        </mxCell>
        <mxCell id="6rP7G1vMZs56Qu1uSz9i-5" value="" style="endArrow=classic;html=1;rounded=0;" edge="1" parent="1">
          <mxGeometry width="50" height="50" relative="1" as="geometry">
            <mxPoint x="20" y="157" as="sourcePoint" />
            <mxPoint x="60" y="107" as="targetPoint" />
          </mxGeometry>
        </mxCell>
        <mxCell id="6rP7G1vMZs56Qu1uSz9i-6" value="$$\overrightarrow{v}$$" style="text;html=1;strokeColor=none;fillColor=none;align=center;verticalAlign=middle;whiteSpace=wrap;rounded=0;" vertex="1" parent="1">
          <mxGeometry y="113" width="60" height="30" as="geometry" />
        </mxCell>
        <mxCell id="6rP7G1vMZs56Qu1uSz9i-7" value="" style="shape=parallelogram;perimeter=parallelogramPerimeter;whiteSpace=wrap;html=1;fixedSize=1;size=50;fillColor=none;" vertex="1" parent="1">
          <mxGeometry x="143" y="102" width="190" height="55" as="geometry" />
        </mxCell>
        <mxCell id="6rP7G1vMZs56Qu1uSz9i-8" value="" style="endArrow=classic;html=1;rounded=0;" edge="1" parent="1">
          <mxGeometry width="50" height="50" relative="1" as="geometry">
            <mxPoint x="270" y="130" as="sourcePoint" />
            <mxPoint x="270" y="70" as="targetPoint" />
          </mxGeometry>
        </mxCell>
        <mxCell id="6rP7G1vMZs56Qu1uSz9i-9" value="$$\overrightarrow{n}$$" style="text;html=1;strokeColor=none;fillColor=none;align=center;verticalAlign=middle;whiteSpace=wrap;rounded=0;" vertex="1" parent="1">
          <mxGeometry x="250" y="75" width="60" height="30" as="geometry" />
        </mxCell>
        <mxCell id="6rP7G1vMZs56Qu1uSz9i-10" value="" style="endArrow=none;html=1;rounded=0;startArrow=oval;startFill=1;strokeWidth=0;" edge="1" parent="1">
          <mxGeometry width="50" height="50" relative="1" as="geometry">
            <mxPoint x="210" y="130" as="sourcePoint" />
            <mxPoint x="270" y="130" as="targetPoint" />
          </mxGeometry>
        </mxCell>
        <mxCell id="6rP7G1vMZs56Qu1uSz9i-11" value="$$Q$$" style="text;html=1;strokeColor=none;fillColor=none;align=center;verticalAlign=middle;whiteSpace=wrap;rounded=0;" vertex="1" parent="1">
          <mxGeometry x="173" y="127" width="60" height="30" as="geometry" />
        </mxCell>
      </root>
    </mxGraphModel>
  </diagram>
</mxfile>
